<mxfile host="Electron" modified="2024-07-05T15:36:47.228Z" agent="Mozilla/5.0 (Windows NT 10.0; Win64; x64) AppleWebKit/537.36 (KHTML, like Gecko) draw.io/24.2.5 Chrome/120.0.6099.109 Electron/28.1.0 Safari/537.36" etag="B88v-kWvKXYQNQfCnnvl" version="24.2.5" type="device">
  <diagram name="Page-1" id="7Nb2ZkCOupzpHigS8odi">
    <mxGraphModel dx="2546" dy="1367" grid="0" gridSize="10" guides="1" tooltips="1" connect="1" arrows="1" fold="1" page="0" pageScale="1" pageWidth="600" pageHeight="500" background="#FFFFFF" math="0" shadow="0">
      <root>
        <mxCell id="0" />
        <mxCell id="1" parent="0" />
        <mxCell id="lOgogImHYgzOdN7vRdeS-1" style="edgeStyle=entityRelationEdgeStyle;rounded=0;orthogonalLoop=1;jettySize=auto;html=1;" parent="1" source="lOgogImHYgzOdN7vRdeS-2" edge="1">
          <mxGeometry relative="1" as="geometry">
            <mxPoint x="240" y="350" as="targetPoint" />
          </mxGeometry>
        </mxCell>
        <mxCell id="lOgogImHYgzOdN7vRdeS-2" value="&lt;font face=&quot;Tahoma&quot;&gt;&lt;span style=&quot;font-size: 18px;&quot;&gt;Products Dimension&lt;/span&gt;&lt;/font&gt;" style="swimlane;html=1;startSize=23;verticalAlign=bottom;labelBorderColor=none;fillColor=#dae8fc;strokeColor=#6c8ebf;swimlaneFillColor=default;" parent="1" vertex="1">
          <mxGeometry x="-284" y="494" width="280" height="180" as="geometry" />
        </mxCell>
        <mxCell id="lOgogImHYgzOdN7vRdeS-3" value="&lt;div style=&quot;font-size: 25px;&quot;&gt;&lt;div&gt;Product_id&lt;/div&gt;&lt;div&gt;Product_name&lt;/div&gt;&lt;div&gt;Product_category&lt;/div&gt;&lt;/div&gt;" style="text;html=1;strokeColor=none;fillColor=none;align=center;verticalAlign=middle;whiteSpace=wrap;rounded=0;" parent="lOgogImHYgzOdN7vRdeS-2" vertex="1">
          <mxGeometry x="10" y="25" width="260" height="150" as="geometry" />
        </mxCell>
        <mxCell id="lOgogImHYgzOdN7vRdeS-4" style="edgeStyle=orthogonalEdgeStyle;rounded=0;orthogonalLoop=1;jettySize=auto;html=1;exitX=1;exitY=1;exitDx=0;exitDy=0;" parent="1" source="lOgogImHYgzOdN7vRdeS-5" target="lOgogImHYgzOdN7vRdeS-16" edge="1">
          <mxGeometry relative="1" as="geometry">
            <Array as="points">
              <mxPoint x="1380" y="-270" />
              <mxPoint x="1380" y="-60" />
              <mxPoint x="910" y="-60" />
              <mxPoint x="910" y="30" />
              <mxPoint x="480" y="30" />
            </Array>
          </mxGeometry>
        </mxCell>
        <mxCell id="lOgogImHYgzOdN7vRdeS-5" value="&lt;span style=&quot;font-size: 20px;&quot;&gt;Sales Agents Dimension&lt;/span&gt;" style="swimlane;whiteSpace=wrap;html=1;fillColor=#dae8fc;strokeColor=#6c8ebf;swimlaneFillColor=default;" parent="1" vertex="1">
          <mxGeometry x="493" y="-273" width="280" height="166" as="geometry" />
        </mxCell>
        <mxCell id="lOgogImHYgzOdN7vRdeS-6" value="&lt;div style=&quot;font-size: 25px;&quot;&gt;&lt;font style=&quot;font-size: 25px;&quot;&gt;&lt;div style=&quot;&quot;&gt;sales_person_id&lt;/div&gt;&lt;div style=&quot;&quot;&gt;sales_person_name&lt;/div&gt;&lt;div style=&quot;&quot;&gt;&lt;span style=&quot;background-color: initial;&quot;&gt;hire_date&lt;/span&gt;&lt;/div&gt;&lt;/font&gt;&lt;/div&gt;&lt;font style=&quot;font-size: 25px;&quot;&gt;&lt;font style=&quot;font-size: 25px;&quot;&gt;&lt;div style=&quot;&quot;&gt;&lt;div&gt;&lt;br&gt;&lt;/div&gt;&lt;/div&gt;&lt;/font&gt;&lt;/font&gt;" style="text;html=1;align=center;verticalAlign=middle;resizable=0;points=[];autosize=1;strokeColor=none;fillColor=none;rotation=0;" parent="lOgogImHYgzOdN7vRdeS-5" vertex="1">
          <mxGeometry x="18.5" y="34" width="243" height="132" as="geometry" />
        </mxCell>
        <mxCell id="lOgogImHYgzOdN7vRdeS-7" style="edgeStyle=orthogonalEdgeStyle;rounded=0;orthogonalLoop=1;jettySize=auto;html=1;exitX=1;exitY=0.75;exitDx=0;exitDy=0;entryX=0;entryY=0.25;entryDx=0;entryDy=0;" parent="1" source="lOgogImHYgzOdN7vRdeS-8" target="lOgogImHYgzOdN7vRdeS-16" edge="1">
          <mxGeometry relative="1" as="geometry" />
        </mxCell>
        <mxCell id="lOgogImHYgzOdN7vRdeS-8" value="&lt;span style=&quot;font-size: 16px;&quot;&gt;Orders Dimension&lt;/span&gt;" style="swimlane;whiteSpace=wrap;html=1;swimlaneFillColor=default;fillColor=#dae8fc;strokeColor=#6c8ebf;" parent="1" vertex="1">
          <mxGeometry x="-284" y="5" width="280" height="255" as="geometry" />
        </mxCell>
        <mxCell id="lOgogImHYgzOdN7vRdeS-9" value="&lt;div style=&quot;text-align: left;&quot;&gt;&lt;span style=&quot;background-color: initial; white-space-collapse: preserve;&quot;&gt;&lt;font style=&quot;font-size: 25px;&quot; face=&quot;Tahoma&quot; color=&quot;#0d0d0d&quot;&gt;Transaction_id&lt;br&gt;Unit_price&lt;br&gt;Is_online&lt;br&gt;Payment_method&lt;br&gt;Shipping_address&lt;br&gt;Offer&lt;/font&gt;&lt;/span&gt;&lt;/div&gt;" style="text;html=1;align=center;verticalAlign=middle;whiteSpace=wrap;rounded=0;" parent="lOgogImHYgzOdN7vRdeS-8" vertex="1">
          <mxGeometry x="25" y="25" width="230" height="230" as="geometry" />
        </mxCell>
        <mxCell id="lOgogImHYgzOdN7vRdeS-10" style="edgeStyle=orthogonalEdgeStyle;rounded=0;orthogonalLoop=1;jettySize=auto;html=1;entryX=1;entryY=0.75;entryDx=0;entryDy=0;" parent="1" source="lOgogImHYgzOdN7vRdeS-11" target="lOgogImHYgzOdN7vRdeS-16" edge="1">
          <mxGeometry relative="1" as="geometry">
            <mxPoint x="510" y="630" as="targetPoint" />
            <Array as="points">
              <mxPoint x="820" y="660" />
              <mxPoint x="820" y="390" />
            </Array>
          </mxGeometry>
        </mxCell>
        <mxCell id="lOgogImHYgzOdN7vRdeS-11" value="&lt;div style=&quot;text-align: left;&quot;&gt;&lt;font face=&quot;Söhne, ui-sans-serif, system-ui, -apple-system, Segoe UI, Roboto, Ubuntu, Cantarell, Noto Sans, sans-serif, Helvetica Neue, Arial, Apple Color Emoji, Segoe UI Emoji, Segoe UI Symbol, Noto Color Emoji&quot; color=&quot;#0d0d0d&quot;&gt;&lt;span style=&quot;font-size: 20px; white-space-collapse: preserve;&quot;&gt;C&lt;/span&gt;&lt;/font&gt;&lt;span style=&quot;font-size: 20px; white-space-collapse: preserve; color: rgb(13, 13, 13); font-family: Söhne, ui-sans-serif, system-ui, -apple-system, &amp;quot;Segoe UI&amp;quot;, Roboto, Ubuntu, Cantarell, &amp;quot;Noto Sans&amp;quot;, sans-serif, &amp;quot;Helvetica Neue&amp;quot;, Arial, &amp;quot;Apple Color Emoji&amp;quot;, &amp;quot;Segoe UI Emoji&amp;quot;, &amp;quot;Segoe UI Symbol&amp;quot;, &amp;quot;Noto Color Emoji&amp;quot;; background-color: initial;&quot;&gt;ustomers Dimension&lt;/span&gt;&lt;/div&gt;" style="swimlane;whiteSpace=wrap;html=1;startSize=23;fillColor=#dae8fc;strokeColor=#6c8ebf;swimlaneFillColor=default;" parent="1" vertex="1">
          <mxGeometry x="1202" y="383" width="280" height="213" as="geometry">
            <mxRectangle x="810" y="645" width="180" height="30" as="alternateBounds" />
          </mxGeometry>
        </mxCell>
        <mxCell id="lOgogImHYgzOdN7vRdeS-12" value="&lt;div style=&quot;text-align: left;&quot;&gt;&lt;span style=&quot;background-color: initial; font-size: 25px; white-space-collapse: preserve;&quot;&gt;&lt;font style=&quot;font-size: 25px;&quot; face=&quot;Tahoma&quot; color=&quot;#0d0d0d&quot;&gt;Customer id&lt;br&gt;Customer fname &lt;br&gt;Customer lname&lt;br&gt;Customer email&lt;/font&gt;&lt;/span&gt;&lt;/div&gt;" style="text;html=1;align=center;verticalAlign=middle;whiteSpace=wrap;rounded=0;" parent="lOgogImHYgzOdN7vRdeS-11" vertex="1">
          <mxGeometry x="15" y="44.5" width="260" height="124" as="geometry" />
        </mxCell>
        <mxCell id="lOgogImHYgzOdN7vRdeS-13" style="edgeStyle=orthogonalEdgeStyle;rounded=0;orthogonalLoop=1;jettySize=auto;html=1;entryX=1;entryY=0.25;entryDx=0;entryDy=0;" parent="1" source="lOgogImHYgzOdN7vRdeS-14" target="lOgogImHYgzOdN7vRdeS-16" edge="1">
          <mxGeometry relative="1" as="geometry">
            <mxPoint x="600" y="340" as="targetPoint" />
            <Array as="points">
              <mxPoint x="821" y="320" />
              <mxPoint x="821" y="341" />
              <mxPoint x="770" y="341" />
              <mxPoint x="770" y="210" />
            </Array>
          </mxGeometry>
        </mxCell>
        <mxCell id="lOgogImHYgzOdN7vRdeS-14" value="&lt;font style=&quot;font-size: 22px;&quot;&gt;B&lt;/font&gt;&lt;span style=&quot;font-size: 22px; background-color: initial;&quot;&gt;ranches Dimension&lt;/span&gt;" style="swimlane;whiteSpace=wrap;html=1;fillColor=#dae8fc;strokeColor=#6c8ebf;swimlaneFillColor=default;" parent="1" vertex="1">
          <mxGeometry x="1202" y="-4" width="280" height="236" as="geometry" />
        </mxCell>
        <mxCell id="lOgogImHYgzOdN7vRdeS-15" value="&lt;div style=&quot;font-size: 25px;&quot;&gt;&lt;div&gt;Branch_id&lt;/div&gt;&lt;div&gt;Location&lt;/div&gt;&lt;div&gt;Establish_date&lt;/div&gt;&lt;div&gt;Class&lt;/div&gt;&lt;/div&gt;" style="text;html=1;strokeColor=none;fillColor=none;align=center;verticalAlign=middle;whiteSpace=wrap;rounded=0;" parent="lOgogImHYgzOdN7vRdeS-14" vertex="1">
          <mxGeometry x="32.5" y="32" width="215" height="171" as="geometry" />
        </mxCell>
        <mxCell id="lOgogImHYgzOdN7vRdeS-16" value="Transactions_Fact_table" style="swimlane;startSize=23;fillColor=#ffe6cc;strokeColor=#d79b00;swimlaneFillColor=default;whiteSpace=wrap;html=1;fontSize=20;fontFamily=Tahoma;" parent="1" vertex="1">
          <mxGeometry x="240" y="120" width="400" height="380" as="geometry" />
        </mxCell>
        <mxCell id="lOgogImHYgzOdN7vRdeS-17" value="&lt;font face=&quot;Tahoma&quot;&gt;&lt;span style=&quot;background-color: initial;&quot;&gt;&lt;span style=&quot;font-size: 20px;&quot;&gt;Transaction_date&lt;/span&gt;&lt;/span&gt;&lt;/font&gt;&lt;div&gt;&lt;span style=&quot;font-size: 20px; font-family: Tahoma; background-color: initial;&quot;&gt;Transaction_id&lt;/span&gt;&lt;div&gt;&lt;font face=&quot;Tahoma&quot;&gt;&lt;span style=&quot;font-size: 20px;&quot;&gt;Customer_id&lt;/span&gt;&lt;/font&gt;&lt;/div&gt;&lt;div&gt;&lt;span style=&quot;font-size: 20px; font-family: Tahoma; background-color: initial;&quot;&gt;Sales_person_id&amp;nbsp;&lt;/span&gt;&lt;/div&gt;&lt;div&gt;&lt;font face=&quot;Tahoma&quot;&gt;&lt;span style=&quot;font-size: 20px;&quot;&gt;Branch_id&amp;nbsp;&lt;/span&gt;&lt;/font&gt;&lt;/div&gt;&lt;div&gt;&lt;span style=&quot;font-family: Tahoma; background-color: initial; font-size: 20px;&quot;&gt;product_id&amp;nbsp;&lt;/span&gt;&lt;/div&gt;&lt;div&gt;&lt;div&gt;&lt;span style=&quot;color: rgba(0, 0, 0, 0); font-family: monospace; font-size: 0px; font-weight: 400; text-align: start; text-wrap: nowrap;&quot;&gt;%3CmxGraphModel%3E%3Croot%3E%3CmxCell%20id%3D%220%22%2F%3E%3CmxCell%20id%3D%221%22%20parent%3D%220%22%2F%3E%3CmxCell%20id%3D%222%22%20value%3D%22Flight%20Revenue%20Fact%22%20style%3D%22swimlane%3BwhiteSpace%3Dwrap%3BfontSize%3D20%3BfillColor%3D%23ffe6cc%3BstrokeColor%3D%23d79b00%3BswimlaneFillColor%3Ddefault%3Bhtml%3D1%3BfontFamily%3DTahoma%3B%22%20vertex%3D%221%22%20parent%3D%221%22%3E%3CmxGeometry%20x%3D%22240%22%20y%3D%22680%22%20width%3D%22360%22%20height%3D%22440%22%20as%3D%22geometry%22%2F%3E%3C%2FmxCell%3E%3CmxCell%20id%3D%223%22%20value%3D%22%26lt%3Bdiv%20style%3D%26quot%3Btext-align%3A%20left%3B%20font-size%3A%2020px%3B%26quot%3B%26gt%3B%26lt%3Bfont%20face%3D%26quot%3BTahoma%26quot%3B%20style%3D%26quot%3Bfont-size%3A%2020px%3B%26quot%3B%26gt%3BScheduled%20Departure%20Date%20Key%20(FK)%26lt%3Bbr%20style%3D%26quot%3B%26quot%3B%26gt%3B%20Scheduled%20Departure%26amp%3Bnbsp%3B%26lt%3Bspan%20style%3D%26quot%3Bbackground-color%3A%20initial%3B%26quot%3B%26gt%3BTime%20Key%20(FK)%26lt%3B%2Fspan%26gt%3B%26lt%3B%2Ffont%26gt%3B%26lt%3B%2Fdiv%26gt%3B%26lt%3Bdiv%20style%3D%26quot%3Btext-align%3A%20left%3B%20font-size%3A%2020px%3B%26quot%3B%26gt%3B%26lt%3Bfont%20face%3D%26quot%3BZpFloQ41apuhYkAUxMbN%26quot%3B%20style%3D%26quot%3Bfont-size%3A%2020px%3B%26quot%3B%26gt%3BOrigin%20Airport%20Key%20(FK)%26lt%3Bbr%20style%3D%26quot%3B%26quot%3B%26gt%3BDestination%26amp%3Bnbsp%3B%26lt%3Bspan%20style%3D%26quot%3Bbackground-color%3A%20initial%3B%26quot%3B%26gt%3BAirport%20Key%20(FK)%26lt%3B%2Fspan%26gt%3B%26lt%3B%2Ffont%26gt%3B%26lt%3B%2Fdiv%26gt%3B%26lt%3Bdiv%20style%3D%26quot%3Btext-align%3A%20left%3B%20font-size%3A%2020px%3B%26quot%3B%26gt%3B%26lt%3Bspan%20style%3D%26quot%3Bbackground-color%3A%20initial%3B%26quot%3B%26gt%3B%26lt%3Bfont%20face%3D%26quot%3BZpFloQ41apuhYkAUxMbN%26quot%3B%20style%3D%26quot%3Bfont-size%3A%2020px%3B%26quot%3B%26gt%3BFlight%20Milestone%20Key%20(FK)%26lt%3B%2Ffont%26gt%3B%26lt%3B%2Fspan%26gt%3B%26lt%3B%2Fdiv%26gt%3B%26lt%3Bdiv%20style%3D%26quot%3Btext-align%3A%20left%3B%20font-size%3A%2020px%3B%26quot%3B%26gt%3B%26lt%3Bfont%20face%3D%26quot%3BZpFloQ41apuhYkAUxMbN%26quot%3B%20style%3D%26quot%3Bfont-size%3A%2020px%3B%26quot%3B%26gt%3B%20Aircraft%20Key%20(FK)%26lt%3B%2Ffont%26gt%3B%26lt%3B%2Fdiv%26gt%3B%26lt%3Bdiv%20style%3D%26quot%3Btext-align%3A%20left%3B%20font-size%3A%2020px%3B%26quot%3B%26gt%3B%26lt%3Bfont%20face%3D%26quot%3BZpFloQ41apuhYkAUxMbN%26quot%3B%20style%3D%26quot%3Bfont-size%3A%2020px%3B%26quot%3B%26gt%3B%20Flight%20Number%20(DD)%26amp%3Bnbsp%3B%26lt%3B%2Ffont%26gt%3B%26lt%3B%2Fdiv%26gt%3B%26lt%3Bdiv%20style%3D%26quot%3Btext-align%3A%20left%3B%20font-size%3A%2020px%3B%26quot%3B%26gt%3B%26lt%3Bfont%20face%3D%26quot%3BZpFloQ41apuhYkAUxMbN%26quot%3B%20style%3D%26quot%3Bfont-size%3A%2020px%3B%26quot%3B%26gt%3B%26lt%3Bbr%26gt%3B%26lt%3B%2Ffont%26gt%3B%26lt%3B%2Fdiv%26gt%3B%26lt%3Bdiv%20style%3D%26quot%3Btext-align%3A%20left%3B%20font-size%3A%2020px%3B%26quot%3B%26gt%3B%26lt%3Bfont%20face%3D%26quot%3BZpFloQ41apuhYkAUxMbN%26quot%3B%20style%3D%26quot%3Bfont-size%3A%2020px%3B%26quot%3B%26gt%3BUnearned%20Revenue%26lt%3B%2Ffont%26gt%3B%26lt%3B%2Fdiv%26gt%3B%26lt%3Bdiv%20style%3D%26quot%3Btext-align%3A%20left%3B%20font-size%3A%2020px%3B%26quot%3B%26gt%3B%26lt%3Bdiv%20style%3D%26quot%3Bborder-color%3A%20var(--border-color)%3B%26quot%3B%26gt%3B%26lt%3Bfont%20face%3D%26quot%3BZpFloQ41apuhYkAUxMbN%26quot%3B%20style%3D%26quot%3Bfont-size%3A%2020px%3B%26quot%3B%26gt%3BRemaining%20Economy%20Seats%26lt%3B%2Ffont%26gt%3B%26lt%3B%2Fdiv%26gt%3B%26lt%3Bdiv%20style%3D%26quot%3Bborder-color%3A%20var(--border-color)%3B%26quot%3B%26gt%3B%26lt%3Bfont%20face%3D%26quot%3BZpFloQ41apuhYkAUxMbN%26quot%3B%20style%3D%26quot%3Bfont-size%3A%2020px%3B%26quot%3B%26gt%3BRemaining%20Prem%20Economy%20Seats%26lt%3B%2Ffont%26gt%3B%26lt%3B%2Fdiv%26gt%3B%26lt%3Bdiv%20style%3D%26quot%3B%26quot%3B%26gt%3B%26lt%3Bfont%20face%3D%26quot%3BZpFloQ41apuhYkAUxMbN%26quot%3B%20style%3D%26quot%3Bfont-size%3A%2020px%3B%26quot%3B%26gt%3BRemaining%20Business%20Seats%26lt%3Bbr%20style%3D%26quot%3B%26quot%3B%26gt%3B%26lt%3B%2Ffont%26gt%3B%26lt%3B%2Fdiv%26gt%3B%26lt%3B%2Fdiv%26gt%3B%26lt%3Bdiv%20style%3D%26quot%3Btext-align%3A%20left%3B%20font-size%3A%2020px%3B%26quot%3B%26gt%3B%26lt%3Bfont%20face%3D%26quot%3BZpFloQ41apuhYkAUxMbN%26quot%3B%20style%3D%26quot%3Bfont-size%3A%2020px%3B%26quot%3B%26gt%3BRemaining%20First%20Class%20Seats%26lt%3B%2Ffont%26gt%3B%26lt%3B%2Fdiv%26gt%3B%26lt%3Bdiv%20style%3D%26quot%3Btext-align%3A%20left%3B%20font-size%3A%2020px%3B%26quot%3B%26gt%3B%26lt%3Bfont%20face%3D%26quot%3BZpFloQ41apuhYkAUxMbN%26quot%3B%20style%3D%26quot%3Bfont-size%3A%2020px%3B%26quot%3B%26gt%3BCancelled%20Reservations%26lt%3B%2Ffont%26gt%3B%26lt%3B%2Fdiv%26gt%3B%22%20style%3D%22text%3Bhtml%3D1%3Balign%3Dcenter%3BverticalAlign%3Dmiddle%3Bresizable%3D0%3Bpoints%3D%5B%5D%3Bautosize%3D1%3BstrokeColor%3Dnone%3BfillColor%3Dnone%3BfontSize%3D14%3B%22%20vertex%3D%221%22%20parent%3D%222%22%3E%3CmxGeometry%20x%3D%2215%22%20y%3D%2250%22%20width%3D%22340%22%20height%3D%22360%22%20as%3D%22geometry%22%2F%3E%3C%2FmxCell%3E%3CmxCell%20id%3D%224%22%20value%3D%22%22%20style%3D%22line%3BstrokeWidth%3D1%3Bhtml%3D1%3BfontSize%3D2%3B%22%20vertex%3D%221%22%20parent%3D%222%22%3E%3CmxGeometry%20x%3D%228%22%20y%3D%22240%22%20width%3D%22332%22%20height%3D%228%22%20as%3D%22geometry%22%2F%3E%3C%2FmxCell%3E%3C%2Froot%3E%3C%2FmxGraphModel%3E&lt;/span&gt;&lt;span style=&quot;color: rgba(0, 0, 0, 0); font-family: monospace; font-size: 0px; font-weight: 400; text-align: start; text-wrap: nowrap; background-color: initial;&quot;&gt;%3CmxGraphModel%3E%3Croot%3E%3CmxCell%20id%3D%220%22%2F%3E%3CmxCell%20id%3D%221%22%20parent%3D%220%22%2F%3E%3CmxCell%20id%3D%222%22%20value%3D%22%22%20style%3D%22line%3BstrokeWidth%3D1%3Bhtml%3D1%3BfontSize%3D2%3B%22%20vertex%3D%221%22%20parent%3D%221%22%3E%3CmxGeometry%20x%3D%22248%22%20y%3D%22920%22%20width%3D%22332%22%20height%3D%228%22%20as%3D%22geometry%22%2F%3E%3C%2FmxCell%3E%3C%2Froot%3E%3C%2FmxGraphModel%3E&lt;/span&gt;&lt;span style=&quot;color: rgba(0, 0, 0, 0); font-family: monospace; font-size: 0px; font-weight: 400; text-align: start; text-wrap: nowrap; background-color: initial;&quot;&gt;%3CmxGraphModel%3E%3Croot%3E%3CmxCell%20id%3D%220%22%2F%3E%3CmxCell%20id%3D%221%22%20parent%3D%220%22%2F%3E%3CmxCell%20id%3D%222%22%20value%3D%22%22%20style%3D%22line%3BstrokeWidth%3D1%3Bhtml%3D1%3BfontSize%3D2%3B%22%20vertex%3D%221%22%20parent%3D%221%22%3E%3CmxGeometry%20x%3D%22248%22%20y%3D%22920%22%20width%3D%22332%22%20height%3D%228%22%20as%3D%22geometry%22%2F%3E%3C%2FmxCell%3E%3C%2Froot%3E%3C%2FmxGraphModel%3E&lt;/span&gt;&lt;span style=&quot;background-color: initial; color: rgba(0, 0, 0, 0); font-family: monospace; font-size: 0px; font-weight: 400; text-align: start; text-wrap: nowrap;&quot;&gt;%3CmxGraphModel%3E%3Croot%3E%3CmxCell%20id%3D%220%22%2F%3E%3CmxCell%20id%3D%221%22%20parent%3D%220%22%2F%3E%3CmxCell%20id%3D%222%22%20value%3D%22Flight%20Revenue%20Fact%22%20style%3D%22swimlane%3BwhiteSpace%3Dwrap%3BfontSize%3D20%3BfillColor%3D%23ffe6cc%3BstrokeColor%3D%23d79b00%3BswimlaneFillColor%3Ddefault%3Bhtml%3D1%3BfontFamily%3DTahoma%3B%22%20vertex%3D%221%22%20parent%3D%221%22%3E%3CmxGeometry%20x%3D%22240%22%20y%3D%22680%22%20width%3D%22360%22%20height%3D%22440%22%20as%3D%22geometry%22%2F%3E%3C%2FmxCell%3E%3CmxCell%20id%3D%223%22%20value%3D%22%26lt%3Bdiv%20style%3D%26quot%3Btext-align%3A%20left%3B%20font-size%3A%2020px%3B%26quot%3B%26gt%3B%26lt%3Bfont%20face%3D%26quot%3BTahoma%26quot%3B%20style%3D%26quot%3Bfont-size%3A%2020px%3B%26quot%3B%26gt%3BScheduled%20Departure%20Date%20Key%20(FK)%26lt%3Bbr%20style%3D%26quot%3B%26quot%3B%26gt%3B%20Scheduled%20Departure%26amp%3Bnbsp%3B%26lt%3Bspan%20style%3D%26quot%3Bbackground-color%3A%20initial%3B%26quot%3B%26gt%3BTime%20Key%20(FK)%26lt%3B%2Fspan%26gt%3B%26lt%3B%2Ffont%26gt%3B%26lt%3B%2Fdiv%26gt%3B%26lt%3Bdiv%20style%3D%26quot%3Btext-align%3A%20left%3B%20font-size%3A%2020px%3B%26quot%3B%26gt%3B%26lt%3Bfont%20face%3D%26quot%3BZpFloQ41apuhYkAUxMbN%26quot%3B%20style%3D%26quot%3Bfont-size%3A%2020px%3B%26quot%3B%26gt%3BOrigin%20Airport%20Key%20(FK)%26lt%3Bbr%20style%3D%26quot%3B%26quot%3B%26gt%3BDestination%26amp%3Bnbsp%3B%26lt%3Bspan%20style%3D%26quot%3Bbackground-color%3A%20initial%3B%26quot%3B%26gt%3BAirport%20Key%20(FK)%26lt%3B%2Fspan%26gt%3B%26lt%3B%2Ffont%26gt%3B%26lt%3B%2Fdiv%26gt%3B%26lt%3Bdiv%20style%3D%26quot%3Btext-align%3A%20left%3B%20font-size%3A%2020px%3B%26quot%3B%26gt%3B%26lt%3Bspan%20style%3D%26quot%3Bbackground-color%3A%20initial%3B%26quot%3B%26gt%3B%26lt%3Bfont%20face%3D%26quot%3BZpFloQ41apuhYkAUxMbN%26quot%3B%20style%3D%26quot%3Bfont-size%3A%2020px%3B%26quot%3B%26gt%3BFlight%20Milestone%20Key%20(FK)%26lt%3B%2Ffont%26gt%3B%26lt%3B%2Fspan%26gt%3B%26lt%3B%2Fdiv%26gt%3B%26lt%3Bdiv%20style%3D%26quot%3Btext-align%3A%20left%3B%20font-size%3A%2020px%3B%26quot%3B%26gt%3B%26lt%3Bfont%20face%3D%26quot%3BZpFloQ41apuhYkAUxMbN%26quot%3B%20style%3D%26quot%3Bfont-size%3A%2020px%3B%26quot%3B%26gt%3B%20Aircraft%20Key%20(FK)%26lt%3B%2Ffont%26gt%3B%26lt%3B%2Fdiv%26gt%3B%26lt%3Bdiv%20style%3D%26quot%3Btext-align%3A%20left%3B%20font-size%3A%2020px%3B%26quot%3B%26gt%3B%26lt%3Bfont%20face%3D%26quot%3BZpFloQ41apuhYkAUxMbN%26quot%3B%20style%3D%26quot%3Bfont-size%3A%2020px%3B%26quot%3B%26gt%3B%20Flight%20Number%20(DD)%26amp%3Bnbsp%3B%26lt%3B%2Ffont%26gt%3B%26lt%3B%2Fdiv%26gt%3B%26lt%3Bdiv%20style%3D%26quot%3Btext-align%3A%20left%3B%20font-size%3A%2020px%3B%26quot%3B%26gt%3B%26lt%3Bfont%20face%3D%26quot%3BZpFloQ41apuhYkAUxMbN%26quot%3B%20style%3D%26quot%3Bfont-size%3A%2020px%3B%26quot%3B%26gt%3B%26lt%3Bbr%26gt%3B%26lt%3B%2Ffont%26gt%3B%26lt%3B%2Fdiv%26gt%3B%26lt%3Bdiv%20style%3D%26quot%3Btext-align%3A%20left%3B%20font-size%3A%2020px%3B%26quot%3B%26gt%3B%26lt%3Bfont%20face%3D%26quot%3BZpFloQ41apuhYkAUxMbN%26quot%3B%20style%3D%26quot%3Bfont-size%3A%2020px%3B%26quot%3B%26gt%3BUnearned%20Revenue%26lt%3B%2Ffont%26gt%3B%26lt%3B%2Fdiv%26gt%3B%26lt%3Bdiv%20style%3D%26quot%3Btext-align%3A%20left%3B%20font-size%3A%2020px%3B%26quot%3B%26gt%3B%26lt%3Bdiv%20style%3D%26quot%3Bborder-color%3A%20var(--border-color)%3B%26quot%3B%26gt%3B%26lt%3Bfont%20face%3D%26quot%3BZpFloQ41apuhYkAUxMbN%26quot%3B%20style%3D%26quot%3Bfont-size%3A%2020px%3B%26quot%3B%26gt%3BRemaining%20Economy%20Seats%26lt%3B%2Ffont%26gt%3B%26lt%3B%2Fdiv%26gt%3B%26lt%3Bdiv%20style%3D%26quot%3Bborder-color%3A%20var(--border-color)%3B%26quot%3B%26gt%3B%26lt%3Bfont%20face%3D%26quot%3BZpFloQ41apuhYkAUxMbN%26quot%3B%20style%3D%26quot%3Bfont-size%3A%2020px%3B%26quot%3B%26gt%3BRemaining%20Prem%20Economy%20Seats%26lt%3B%2Ffont%26gt%3B%26lt%3B%2Fdiv%26gt%3B%26lt%3Bdiv%20style%3D%26quot%3B%26quot%3B%26gt%3B%26lt%3Bfont%20face%3D%26quot%3BZpFloQ41apuhYkAUxMbN%26quot%3B%20style%3D%26quot%3Bfont-size%3A%2020px%3B%26quot%3B%26gt%3BRemaining%20Business%20Seats%26lt%3Bbr%20style%3D%26quot%3B%26quot%3B%26gt%3B%26lt%3B%2Ffont%26gt%3B%26lt%3B%2Fdiv%26gt%3B%26lt%3B%2Fdiv%26gt%3B%26lt%3Bdiv%20style%3D%26quot%3Btext-align%3A%20left%3B%20font-size%3A%2020px%3B%26quot%3B%26gt%3B%26lt%3Bfont%20face%3D%26quot%3BZpFloQ41apuhYkAUxMbN%26quot%3B%20style%3D%26quot%3Bfont-size%3A%2020px%3B%26quot%3B%26gt%3BRemaining%20First%20Class%20Seats%26lt%3B%2Ffont%26gt%3B%26lt%3B%2Fdiv%26gt%3B%26lt%3Bdiv%20style%3D%26quot%3Btext-align%3A%20left%3B%20font-size%3A%2020px%3B%26quot%3B%26gt%3B%26lt%3Bfont%20face%3D%26quot%3BZpFloQ41apuhYkAUxMbN%26quot%3B%20style%3D%26quot%3Bfont-size%3A%2020px%3B%26quot%3B%26gt%3BCancelled%20Reservations%26lt%3B%2Ffont%26gt%3B%26lt%3B%2Fdiv%26gt%3B%22%20style%3D%22text%3Bhtml%3D1%3Balign%3Dcenter%3BverticalAlign%3Dmiddle%3Bresizable%3D0%3Bpoints%3D%5B%5D%3Bautosize%3D1%3BstrokeColor%3Dnone%3BfillColor%3Dnone%3BfontSize%3D14%3B%22%20vertex%3D%221%22%20parent%3D%222%22%3E%3CmxGeometry%20x%3D%2215%22%20y%3D%2250%22%20width%3D%22340%22%20height%3D%22360%22%20as%3D%22geometry%22%2F%3E%3C%2FmxCell%3E%3CmxCell%20id%3D%224%22%20value%3D%22%22%20style%3D%22line%3BstrokeWidth%3D1%3Bhtml%3D1%3BfontSize%3D2%3B%22%20vertex%3D%221%22%20parent%3D%222%22%3E%3CmxGeometry%20x%3D%228%22%20y%3D%22240%22%20width%3D%22332%22%20height%3D%228%22%20as%3D%22geometry%22%2F%3E%3C%2FmxCell%3E%3C%2Froot%3E%3C%2FmxGraphModel%3E&lt;/span&gt;&lt;/div&gt;&lt;div style=&quot;&quot;&gt;&lt;font face=&quot;Tahoma&quot;&gt;&lt;span style=&quot;font-size: 20px;&quot;&gt;Units&lt;/span&gt;&lt;/font&gt;&lt;/div&gt;&lt;div&gt;&lt;font style=&quot;text-align: left; background-color: initial;&quot; face=&quot;Tahoma&quot;&gt;&lt;span style=&quot;font-size: 20px;&quot;&gt;Total_price&lt;/span&gt;&lt;/font&gt;&lt;span style=&quot;text-align: left; background-color: initial; font-size: 20px; font-family: Tahoma;&quot;&gt;&amp;nbsp;&lt;/span&gt;&lt;/div&gt;&lt;div&gt;&lt;span style=&quot;text-align: left; background-color: initial; font-size: 20px; font-family: Tahoma;&quot;&gt;D&lt;/span&gt;&lt;span style=&quot;text-align: left; background-color: initial; font-family: Tahoma; font-size: 20px;&quot;&gt;iscount_percentage&amp;nbsp;&lt;/span&gt;&lt;/div&gt;&lt;div&gt;&lt;span style=&quot;background-color: initial; font-family: Tahoma; font-size: 20px; text-align: left;&quot;&gt;Total_price_after_discount&amp;nbsp;&lt;/span&gt;&lt;/div&gt;&lt;/div&gt;&lt;/div&gt;" style="text;html=1;strokeColor=none;fillColor=none;align=center;verticalAlign=middle;whiteSpace=wrap;rounded=0;fontStyle=1" parent="lOgogImHYgzOdN7vRdeS-16" vertex="1">
          <mxGeometry x="54" y="23" width="285" height="351" as="geometry" />
        </mxCell>
        <mxCell id="lOgogImHYgzOdN7vRdeS-18" value="" style="line;strokeWidth=1;html=1;fontSize=2;" parent="lOgogImHYgzOdN7vRdeS-16" vertex="1">
          <mxGeometry x="30.5" y="220" width="332" height="8" as="geometry" />
        </mxCell>
      </root>
    </mxGraphModel>
  </diagram>
</mxfile>
